<svg xmlns="http://www.w3.org/2000/svg" viewBox="0 0 24 24" fill="currentColor">
  <path d="M12 15a3 3 0 1 0 0-6 3 3 0 0 0 0 6z" />
  <path d="M22.61 11.23a1.72 1.72 0 0 0-2.43-1.6 1.72 1.72 0 0 0-1.1-1.78l-.13-.39a1.72 1.72 0 0 0-.5-2.02l-.33-.28a1.72 1.72 0 0 0-2.31.28l-.34.34a1.72 1.72 0 0 0-2.33.33H12V3a1.72 1.72 0 0 0-3.44 0v2.9A1.72 1.72 0 0 0 7.46 7.68l-.13.39a1.72 1.72 0 0 0-.5 2.02l-.33.28a1.72 1.72 0 0 0-2.31-.28l-.34-.34a1.72 1.72 0 0 0-2 .33L1.39 11.23a1.72 1.72 0 0 0 0 2.43L2.49 14.8a1.72 1.72 0 0 0 2.43 1.6 1.72 1.72 0 0 0 1.1 1.78l.13.39a1.72 1.72 0 0 0 .5 2.02l.33.28a1.72 1.72 0 0 0 2.31-.28l.34-.34a1.72 1.72 0 0 0 2-.33H12V21a1.72 1.72 0 0 0 3.44 0v-2.9a1.72 1.72 0 0 0 1.1-1.78l.13-.39a1.72 1.72 0 0 0 .5-2.02l.33-.28a1.72 1.72 0 0 0 2.31.28l.34.34a1.72 1.72 0 0 0 2-.33l1.1-1.12a1.72 1.72 0 0 0 0-2.43z" />
</svg>