<svg xmlns="http://www.w3.org/2000/svg" viewBox="0 0 24 24" fill="currentColor">
  <path d="M11 2a9 9 0 0 1 6.36 15.36L21 21a1 1 0 0 1-1.41 1.41l-3.64-3.64A9 9 0 1 1 11 2zm0 2a7 7 0 1 0 0 14 7 7 0 0 0 0-14z" />
  <path d="M11 6.5 C11 8.5, 10 9.5, 8 9.5 C10 9.5, 11 10.5, 11 12.5 C11 10.5, 12 9.5, 14 9.5 C12 9.5, 11 8.5, 11 6.5 Z" />
  <circle cx="13.5" cy="13.5" r="1.2" />
  <path d="M7.5 12 C 7.5 15, 12 15, 13.5 13.5" fill="none" stroke="currentColor" stroke-width="1.2" stroke-linecap="round" />
</svg>